<svg xmlns="http://www.w3.org/2000/svg" xmlns:xlink="http://www.w3.org/1999/xlink" width="1080" zoomAndPan="magnify" viewBox="0 0 810 809.999993" height="1080" preserveAspectRatio="xMidYMid meet" version="1.0"><path fill="#ffffff" d="M 771.90625 394.019531 C 771.746094 388.253906 771.375 382.5 770.800781 376.761719 C 770.226562 371.023438 769.449219 365.3125 768.464844 359.632812 C 767.484375 353.949219 766.300781 348.308594 764.914062 342.710938 C 763.53125 337.113281 761.945312 331.570312 760.164062 326.085938 C 758.382812 320.601562 756.410156 315.1875 754.242188 309.839844 C 752.074219 304.496094 749.71875 299.238281 747.175781 294.0625 C 744.632812 288.886719 741.90625 283.808594 739 278.828125 C 736.09375 273.847656 733.011719 268.976562 729.757812 264.214844 C 726.503906 259.453125 723.085938 254.8125 719.5 250.296875 C 715.914062 245.78125 712.171875 241.398438 708.273438 237.148438 C 704.375 232.898438 700.328125 228.792969 696.136719 224.832031 C 691.945312 220.875 687.617188 217.066406 683.152344 213.417969 C 678.6875 209.765625 674.101562 206.277344 669.386719 202.953125 C 664.671875 199.632812 659.847656 196.480469 654.910156 193.5 C 649.972656 190.523438 644.933594 187.722656 639.796875 185.105469 C 634.65625 182.488281 629.433594 180.054688 624.121094 177.808594 C 621.875 172.5 619.4375 167.28125 616.820312 162.148438 C 614.199219 157.015625 611.398438 151.980469 608.417969 147.046875 C 605.4375 142.113281 602.289062 137.292969 598.964844 132.585938 C 595.640625 127.875 592.152344 123.292969 588.503906 118.832031 C 584.851562 114.371094 581.046875 110.046875 577.089844 105.859375 C 573.128906 101.671875 569.027344 97.628906 564.777344 93.734375 C 560.53125 89.839844 556.148438 86.101562 551.632812 82.515625 C 547.121094 78.933594 542.484375 75.515625 537.726562 72.265625 C 532.96875 69.011719 528.097656 65.933594 523.121094 63.03125 C 518.144531 60.125 513.066406 57.402344 507.894531 54.859375 C 502.722656 52.320312 497.464844 49.964844 492.125 47.796875 C 486.785156 45.628906 481.375 43.65625 475.894531 41.875 C 470.410156 40.09375 464.875 38.511719 459.28125 37.125 C 453.683594 35.738281 448.046875 34.554688 442.371094 33.570312 C 436.691406 32.585938 430.984375 31.804688 425.25 31.230469 C 419.515625 30.652344 413.765625 30.28125 408.007812 30.117188 L 394.492188 30.117188 C 387.441406 30.300781 380.410156 30.796875 373.402344 31.601562 C 366.394531 32.40625 359.433594 33.515625 352.523438 34.929688 C 345.613281 36.34375 338.777344 38.058594 332.019531 40.074219 C 325.257812 42.089844 318.597656 44.398438 312.042969 47 C 305.484375 49.601562 299.050781 52.484375 292.75 55.648438 C 286.445312 58.8125 280.289062 62.25 274.289062 65.953125 C 268.285156 69.660156 262.457031 73.621094 256.800781 77.839844 C 251.148438 82.058594 245.6875 86.515625 240.425781 91.210938 C 233.738281 97.1875 227.398438 103.511719 221.40625 110.1875 C 215.410156 116.859375 209.800781 123.84375 204.578125 131.132812 C 199.351562 138.421875 194.542969 145.976562 190.144531 153.796875 C 185.75 161.613281 181.796875 169.652344 178.285156 177.902344 C 172.972656 180.148438 167.753906 182.578125 162.617188 185.195312 C 157.480469 187.8125 152.445312 190.609375 147.507812 193.585938 C 142.574219 196.5625 137.75 199.714844 133.039062 203.035156 C 128.328125 206.359375 123.742188 209.84375 119.28125 213.492188 C 114.816406 217.140625 110.492188 220.945312 106.300781 224.90625 C 102.113281 228.863281 98.066406 232.96875 94.171875 237.214844 C 90.273438 241.460938 86.535156 245.84375 82.949219 250.359375 C 79.367188 254.871094 75.949219 259.507812 72.695312 264.269531 C 69.445312 269.027344 66.367188 273.898438 63.460938 278.875 C 60.558594 283.855469 57.835938 288.929688 55.292969 294.105469 C 52.75 299.277344 50.398438 304.535156 48.230469 309.878906 C 46.066406 315.21875 44.09375 320.632812 42.3125 326.117188 C 40.535156 331.597656 38.953125 337.136719 37.570312 342.734375 C 36.1875 348.328125 35.003906 353.96875 34.023438 359.648438 C 33.042969 365.328125 32.265625 371.035156 31.695312 376.769531 C 31.121094 382.507812 30.753906 388.253906 30.59375 394.019531 C 30.59375 396.207031 30.59375 398.492188 30.59375 400.773438 C 30.59375 403.058594 30.59375 405.246094 30.59375 407.53125 C 30.757812 413.292969 31.128906 419.039062 31.707031 424.773438 C 32.28125 430.507812 33.0625 436.214844 34.046875 441.894531 C 35.027344 447.574219 36.214844 453.210938 37.601562 458.804688 C 38.984375 464.398438 40.570312 469.9375 42.351562 475.417969 C 44.132812 480.898438 46.105469 486.308594 48.273438 491.648438 C 50.4375 496.992188 52.792969 502.246094 55.335938 507.417969 C 57.878906 512.589844 60.601562 517.667969 63.507812 522.644531 C 66.410156 527.621094 69.488281 532.492188 72.742188 537.25 C 75.992188 542.007812 79.410156 546.644531 82.992188 551.160156 C 86.574219 555.671875 90.316406 560.054688 94.210938 564.300781 C 98.105469 568.550781 102.148438 572.652344 106.335938 576.613281 C 110.523438 580.570312 114.847656 584.375 119.308594 588.027344 C 123.765625 591.679688 128.351562 595.164062 133.058594 598.488281 C 137.769531 601.8125 142.589844 604.964844 147.523438 607.941406 C 152.457031 610.921875 157.492188 613.722656 162.625 616.34375 C 167.757812 618.964844 172.976562 621.398438 178.285156 623.644531 C 180.519531 628.957031 182.941406 634.179688 185.550781 639.320312 C 188.160156 644.457031 190.949219 649.496094 193.917969 654.4375 C 196.886719 659.378906 200.027344 664.207031 203.339844 668.921875 C 206.652344 673.636719 210.125 678.230469 213.765625 682.699219 C 217.40625 687.167969 221.199219 691.5 225.148438 695.695312 C 229.097656 699.894531 233.191406 703.945312 237.429688 707.851562 C 241.667969 711.757812 246.039062 715.507812 250.542969 719.101562 C 255.046875 722.695312 259.675781 726.125 264.425781 729.390625 C 269.175781 732.652344 274.035156 735.746094 279.003906 738.664062 C 283.972656 741.582031 289.042969 744.316406 294.207031 746.875 C 299.371094 749.429688 304.621094 751.800781 309.957031 753.980469 C 315.289062 756.164062 320.695312 758.152344 326.171875 759.949219 C 331.644531 761.746094 337.179688 763.34375 342.769531 764.746094 C 348.359375 766.148438 353.992188 767.351562 359.667969 768.351562 C 365.34375 769.351562 371.046875 770.148438 376.78125 770.742188 C 382.511719 771.335938 388.257812 771.722656 394.019531 771.90625 L 407.53125 771.90625 C 413.292969 771.742188 419.039062 771.375 424.773438 770.796875 C 430.511719 770.222656 436.21875 769.445312 441.894531 768.460938 C 447.574219 767.480469 453.210938 766.296875 458.808594 764.910156 C 464.402344 763.527344 469.941406 761.941406 475.421875 760.164062 C 480.90625 758.382812 486.316406 756.410156 491.65625 754.242188 C 496.996094 752.074219 502.253906 749.71875 507.425781 747.179688 C 512.601562 744.636719 517.675781 741.914062 522.65625 739.007812 C 527.632812 736.105469 532.5 733.027344 537.261719 729.773438 C 542.019531 726.523438 546.65625 723.105469 551.171875 719.519531 C 555.683594 715.9375 560.066406 712.199219 564.3125 708.304688 C 568.5625 704.40625 572.664062 700.363281 576.625 696.175781 C 580.582031 691.988281 584.386719 687.660156 588.035156 683.203125 C 591.6875 678.742188 595.175781 674.15625 598.496094 669.445312 C 601.820312 664.738281 604.96875 659.914062 607.949219 654.980469 C 610.929688 650.046875 613.726562 645.011719 616.347656 639.878906 C 618.964844 634.746094 621.398438 629.523438 623.644531 624.214844 C 628.972656 621.972656 634.214844 619.539062 639.371094 616.921875 C 644.527344 614.300781 649.582031 611.5 654.535156 608.519531 C 659.492188 605.539062 664.332031 602.382812 669.0625 599.054688 C 673.792969 595.730469 678.394531 592.234375 682.875 588.578125 C 687.355469 584.921875 691.699219 581.109375 695.902344 577.140625 C 700.109375 573.175781 704.167969 569.0625 708.082031 564.804688 C 711.992188 560.546875 715.75 556.152344 719.347656 551.625 C 722.945312 547.097656 726.375 542.449219 729.640625 537.675781 C 732.90625 532.90625 736 528.023438 738.914062 523.027344 C 741.832031 518.035156 744.5625 512.945312 747.117188 507.753906 C 749.667969 502.566406 752.03125 497.292969 754.207031 491.933594 C 756.378906 486.578125 758.359375 481.148438 760.144531 475.648438 C 761.933594 470.148438 763.519531 464.589844 764.910156 458.976562 C 766.296875 453.363281 767.484375 447.707031 768.46875 442.011719 C 769.449219 436.3125 770.230469 430.585938 770.804688 424.832031 C 771.378906 419.078125 771.746094 413.3125 771.90625 407.53125 C 771.90625 405.246094 771.90625 403.058594 771.90625 400.773438 C 771.90625 398.492188 771.90625 396.207031 771.90625 394.019531 Z M 229.480469 229.957031 C 236.308594 228.28125 243.214844 227.023438 250.195312 226.179688 C 257.171875 225.335938 264.179688 224.914062 271.210938 224.914062 C 278.242188 224.914062 285.246094 225.335938 292.226562 226.179688 C 299.207031 227.023438 306.109375 228.28125 312.9375 229.957031 C 326.199219 209.984375 341.550781 191.777344 358.996094 175.335938 C 345.046875 169.949219 330.722656 165.886719 316.023438 163.152344 C 301.324219 160.417969 286.496094 159.054688 271.542969 159.0625 L 265.546875 159.0625 C 267.601562 156.605469 269.722656 154.203125 271.90625 151.863281 C 274.09375 149.523438 276.339844 147.242188 278.652344 145.023438 C 280.960938 142.804688 283.332031 140.652344 285.757812 138.5625 C 288.1875 136.472656 290.667969 134.453125 293.207031 132.5 C 295.746094 130.546875 298.335938 128.664062 300.976562 126.851562 C 303.617188 125.039062 306.308594 123.304688 309.042969 121.636719 C 311.78125 119.972656 314.558594 118.386719 317.382812 116.871094 C 320.207031 115.359375 323.066406 113.925781 325.96875 112.570312 C 328.871094 111.214844 331.808594 109.9375 334.777344 108.742188 C 337.75 107.546875 340.75 106.433594 343.785156 105.402344 C 346.816406 104.367188 349.875 103.421875 352.957031 102.558594 C 356.042969 101.691406 359.148438 100.914062 362.273438 100.21875 C 365.402344 99.523438 368.542969 98.914062 371.703125 98.390625 C 374.863281 97.867188 378.035156 97.433594 381.21875 97.082031 C 384.402344 96.734375 387.59375 96.472656 390.792969 96.296875 C 393.988281 96.121094 397.191406 96.035156 400.394531 96.035156 C 403.597656 96.035156 406.796875 96.121094 409.992188 96.296875 C 413.191406 96.472656 416.382812 96.734375 419.566406 97.085938 C 422.75 97.433594 425.921875 97.871094 429.082031 98.390625 C 432.242188 98.914062 435.386719 99.523438 438.511719 100.21875 C 441.636719 100.914062 444.742188 101.691406 447.828125 102.558594 C 450.910156 103.421875 453.96875 104.367188 457 105.402344 C 460.035156 106.433594 463.035156 107.546875 466.007812 108.742188 C 468.976562 109.9375 471.914062 111.214844 474.816406 112.570312 C 477.71875 113.925781 480.582031 115.359375 483.402344 116.871094 C 486.226562 118.386719 489.007812 119.972656 491.742188 121.636719 C 494.480469 123.304688 497.167969 125.039062 499.808594 126.851562 C 502.449219 128.664062 505.039062 130.546875 507.578125 132.5 C 510.117188 134.453125 512.601562 136.472656 515.027344 138.5625 C 517.457031 140.652344 519.824219 142.804688 522.132812 145.023438 C 524.445312 147.242188 526.691406 149.523438 528.878906 151.863281 C 531.0625 154.203125 533.183594 156.605469 535.238281 159.0625 L 529.242188 159.0625 C 524.941406 159.058594 520.640625 159.175781 516.34375 159.402344 C 512.046875 159.632812 507.761719 159.972656 503.484375 160.433594 C 499.203125 160.890625 494.941406 161.460938 490.695312 162.144531 C 486.445312 162.832031 482.21875 163.628906 478.015625 164.542969 C 473.808594 165.453125 469.632812 166.476562 465.484375 167.613281 C 461.332031 168.746094 457.214844 169.992188 453.132812 171.347656 C 449.046875 172.703125 445.003906 174.164062 441 175.738281 C 436.992188 177.308594 433.03125 178.984375 429.117188 180.769531 C 425.199219 182.550781 421.335938 184.4375 417.519531 186.425781 C 413.707031 188.417969 409.949219 190.507812 406.246094 192.699219 C 402.539062 194.890625 398.898438 197.175781 395.316406 199.5625 C 391.738281 201.945312 388.222656 204.425781 384.773438 207 C 381.324219 209.574219 377.949219 212.238281 374.644531 214.992188 C 371.335938 217.746094 368.109375 220.585938 364.953125 223.511719 C 361.800781 226.4375 358.726562 229.445312 355.730469 232.539062 C 352.738281 235.628906 349.832031 238.796875 347.007812 242.042969 C 338.800781 251.351562 331.375 261.246094 324.738281 271.734375 C 318.90625 280.917969 313.71875 290.453125 309.183594 300.34375 C 304.648438 310.234375 300.808594 320.386719 297.65625 330.800781 C 294.503906 341.210938 292.070312 351.792969 290.359375 362.535156 C 288.648438 373.28125 287.671875 384.09375 287.433594 394.96875 C 287.433594 396.96875 287.433594 398.964844 287.433594 400.964844 C 287.433594 402.964844 287.433594 404.960938 287.433594 406.960938 C 285.054688 405.054688 282.867188 403.058594 280.679688 400.964844 C 273.757812 394.78125 267.414062 388.058594 261.644531 380.789062 C 253.539062 370.480469 246.65625 359.410156 240.996094 347.578125 C 235.847656 336.765625 231.882812 325.539062 229.101562 313.890625 C 225.710938 300.171875 224.027344 286.246094 224.058594 272.113281 C 224.1875 257.847656 225.992188 243.792969 229.480469 229.957031 Z M 341.867188 400.773438 C 341.859375 396.996094 342.21875 393.253906 342.9375 389.546875 C 343.65625 385.839844 344.726562 382.238281 346.144531 378.738281 C 347.566406 375.238281 349.308594 371.910156 351.375 368.746094 C 353.441406 365.585938 355.792969 362.652344 358.425781 359.949219 C 358.460938 359.535156 358.460938 359.125 358.425781 358.710938 L 359.664062 358.710938 C 361.019531 357.40625 362.433594 356.167969 363.90625 354.996094 C 365.378906 353.828125 366.90625 352.730469 368.484375 351.707031 C 370.0625 350.679688 371.6875 349.734375 373.355469 348.867188 C 375.023438 348 376.730469 347.214844 378.476562 346.507812 C 380.222656 345.804688 381.996094 345.1875 383.800781 344.652344 C 385.605469 344.117188 387.429688 343.671875 389.277344 343.3125 C 391.125 342.953125 392.984375 342.683594 394.855469 342.503906 C 396.730469 342.324219 398.605469 342.234375 400.488281 342.234375 C 402.371094 342.234375 404.246094 342.324219 406.121094 342.503906 C 407.992188 342.683594 409.851562 342.953125 411.699219 343.3125 C 413.546875 343.671875 415.375 344.117188 417.175781 344.652344 C 418.980469 345.183594 420.757812 345.804688 422.5 346.507812 C 424.246094 347.214844 425.953125 348 427.621094 348.867188 C 429.292969 349.734375 430.914062 350.679688 432.496094 351.707031 C 434.074219 352.730469 435.597656 353.828125 437.070312 354.996094 C 438.546875 356.167969 439.957031 357.40625 441.3125 358.710938 L 442.550781 358.710938 C 442.515625 359.125 442.515625 359.535156 442.550781 359.949219 C 443.863281 361.300781 445.105469 362.710938 446.28125 364.183594 C 447.457031 365.65625 448.558594 367.179688 449.585938 368.757812 C 450.617188 370.332031 451.566406 371.957031 452.4375 373.625 C 453.308594 375.296875 454.101562 377.003906 454.808594 378.746094 C 455.515625 380.492188 456.136719 382.269531 456.671875 384.074219 C 457.210938 385.878906 457.660156 387.703125 458.019531 389.554688 C 458.378906 391.402344 458.648438 393.261719 458.832031 395.136719 C 459.011719 397.011719 459.101562 398.890625 459.101562 400.773438 C 459.101562 402.65625 459.011719 404.535156 458.832031 406.410156 C 458.648438 408.285156 458.378906 410.144531 458.019531 411.996094 C 457.660156 413.84375 457.210938 415.667969 456.671875 417.472656 C 456.136719 419.28125 455.515625 421.054688 454.808594 422.800781 C 454.101562 424.546875 453.308594 426.253906 452.4375 427.921875 C 451.566406 429.589844 450.617188 431.214844 449.585938 432.789062 C 448.558594 434.367188 447.457031 435.894531 446.28125 437.363281 C 445.105469 438.835938 443.863281 440.246094 442.550781 441.597656 C 442.464844 441.980469 442.464844 442.359375 442.550781 442.742188 L 441.3125 442.742188 C 439.957031 444.046875 438.546875 445.285156 437.070312 446.457031 C 435.597656 447.625 434.070312 448.722656 432.492188 449.746094 C 430.914062 450.769531 429.292969 451.71875 427.621094 452.585938 C 425.953125 453.453125 424.246094 454.238281 422.5 454.945312 C 420.757812 455.648438 418.980469 456.265625 417.175781 456.800781 C 415.371094 457.335938 413.546875 457.78125 411.699219 458.140625 C 409.851562 458.5 407.992188 458.769531 406.121094 458.949219 C 404.246094 459.128906 402.371094 459.21875 400.488281 459.21875 C 398.605469 459.21875 396.730469 459.128906 394.855469 458.949219 C 392.984375 458.769531 391.125 458.5 389.277344 458.140625 C 387.429688 457.78125 385.605469 457.335938 383.800781 456.800781 C 381.996094 456.265625 380.222656 455.648438 378.476562 454.945312 C 376.730469 454.238281 375.023438 453.453125 373.355469 452.585938 C 371.6875 451.71875 370.0625 450.769531 368.484375 449.746094 C 366.90625 448.722656 365.378906 447.625 363.90625 446.457031 C 362.433594 445.285156 361.019531 444.046875 359.664062 442.742188 L 358.425781 442.742188 C 358.511719 442.359375 358.511719 441.980469 358.425781 441.597656 C 355.796875 438.890625 353.445312 435.957031 351.382812 432.792969 C 349.320312 429.632812 347.578125 426.300781 346.160156 422.804688 C 344.742188 419.304688 343.671875 415.703125 342.949219 411.996094 C 342.226562 408.289062 341.867188 404.550781 341.867188 400.773438 Z M 229.480469 572.066406 C 226.136719 558.277344 224.457031 544.289062 224.4375 530.101562 C 224.429688 514.609375 226.429688 499.382812 230.433594 484.421875 C 210.59375 471.429688 192.511719 456.332031 176.191406 439.125 C 170.324219 453.570312 165.902344 468.449219 162.925781 483.753906 C 159.949219 499.058594 158.46875 514.507812 158.492188 530.101562 C 158.492188 532.097656 158.492188 534.097656 158.492188 536 C 153.019531 531.453125 147.84375 526.585938 142.96875 521.398438 C 138.097656 516.214844 133.558594 510.75 129.355469 505.007812 C 125.152344 499.265625 121.316406 493.289062 117.847656 487.074219 C 114.378906 480.859375 111.304688 474.457031 108.625 467.863281 C 107.746094 465.722656 106.910156 463.566406 106.117188 461.394531 C 105.328125 459.222656 104.578125 457.035156 103.871094 454.832031 C 103.164062 452.628906 102.503906 450.414062 101.882812 448.183594 C 101.265625 445.953125 100.691406 443.714844 100.160156 441.464844 C 99.628906 439.210938 99.144531 436.949219 98.703125 434.679688 C 98.261719 432.410156 97.867188 430.132812 97.515625 427.84375 C 97.164062 425.558594 96.859375 423.265625 96.597656 420.96875 C 96.335938 418.667969 96.121094 416.367188 95.953125 414.058594 C 95.785156 411.753906 95.660156 409.445312 95.582031 407.132812 C 95.503906 404.820312 95.472656 402.507812 95.484375 400.195312 C 95.496094 397.882812 95.554688 395.570312 95.660156 393.257812 C 95.765625 390.949219 95.914062 388.640625 96.109375 386.335938 C 96.304688 384.03125 96.546875 381.730469 96.832031 379.4375 C 97.121094 377.140625 97.449219 374.851562 97.828125 372.570312 C 98.203125 370.289062 98.625 368.015625 99.09375 365.75 C 99.558594 363.484375 100.070312 361.226562 100.628906 358.984375 C 101.183594 356.738281 101.78125 354.503906 102.425781 352.28125 C 103.070312 350.0625 103.757812 347.851562 104.488281 345.660156 C 105.222656 343.464844 105.996094 341.285156 106.8125 339.121094 C 107.628906 336.957031 108.488281 334.808594 109.390625 332.679688 C 110.292969 330.550781 111.238281 328.4375 112.222656 326.347656 C 113.207031 324.253906 114.234375 322.179688 115.300781 320.128906 C 116.367188 318.078125 117.476562 316.046875 118.625 314.039062 C 119.769531 312.03125 120.957031 310.046875 122.183594 308.085938 C 123.410156 306.121094 124.675781 304.1875 125.976562 302.273438 C 127.277344 300.363281 128.617188 298.476562 129.996094 296.621094 C 131.371094 294.761719 132.785156 292.929688 134.234375 291.128906 C 135.683594 289.324219 137.167969 287.550781 138.6875 285.808594 C 140.207031 284.0625 141.761719 282.347656 143.347656 280.667969 C 144.933594 278.984375 146.554688 277.332031 148.207031 275.714844 C 149.859375 274.09375 151.542969 272.511719 153.257812 270.957031 C 154.972656 269.40625 156.714844 267.886719 158.492188 266.40625 C 158.492188 268.402344 158.492188 270.402344 158.492188 272.398438 C 158.476562 287.402344 159.84375 302.28125 162.59375 317.03125 C 165.347656 331.78125 169.433594 346.148438 174.859375 360.140625 C 177.191406 366.085938 179.753906 371.929688 182.546875 377.675781 C 185.339844 383.417969 188.351562 389.042969 191.589844 394.550781 C 194.824219 400.058594 198.269531 405.429688 201.925781 410.667969 C 205.585938 415.902344 209.441406 420.988281 213.5 425.917969 C 217.558594 430.851562 221.800781 435.617188 226.234375 440.21875 C 230.667969 444.816406 235.273438 449.234375 240.050781 453.46875 C 244.832031 457.707031 249.769531 461.75 254.871094 465.597656 C 259.96875 469.445312 265.207031 473.085938 270.59375 476.523438 C 279.796875 482.429688 289.359375 487.6875 299.28125 492.289062 C 309.203125 496.894531 319.390625 500.804688 329.84375 504.019531 C 340.296875 507.238281 350.917969 509.730469 361.710938 511.5 C 372.507812 513.269531 383.371094 514.300781 394.304688 514.589844 L 406.292969 514.589844 L 400.296875 521.34375 C 395.78125 526.292969 390.960938 530.921875 385.832031 535.238281 C 374.003906 545.433594 361.027344 553.871094 346.914062 560.550781 C 336.089844 565.578125 324.859375 569.414062 313.222656 572.066406 C 306.402344 573.742188 299.507812 575 292.535156 575.84375 C 285.5625 576.6875 278.566406 577.109375 271.542969 577.109375 C 264.519531 577.109375 257.523438 576.6875 250.550781 575.84375 C 243.578125 575 236.683594 573.742188 229.863281 572.066406 Z M 572.066406 572.066406 C 565.222656 573.742188 558.300781 575 551.304688 575.84375 C 544.308594 576.6875 537.289062 577.109375 530.242188 577.109375 C 523.195312 577.109375 516.175781 576.6875 509.179688 575.84375 C 502.183594 575 495.261719 573.742188 488.417969 572.066406 C 475.222656 592.035156 459.902344 610.210938 442.457031 626.59375 C 456.410156 632.019531 470.75 636.109375 485.46875 638.859375 C 500.1875 641.609375 515.03125 642.980469 530.003906 642.960938 L 536 642.960938 C 533.945312 645.421875 531.824219 647.820312 529.640625 650.160156 C 527.453125 652.5 525.207031 654.78125 522.898438 657 C 520.585938 659.21875 518.21875 661.371094 515.789062 663.460938 C 513.363281 665.550781 510.878906 667.570312 508.339844 669.523438 C 505.800781 671.476562 503.210938 673.359375 500.570312 675.171875 C 497.929688 676.980469 495.242188 678.71875 492.503906 680.386719 C 489.769531 682.050781 486.988281 683.636719 484.164062 685.152344 C 481.34375 686.664062 478.480469 688.097656 475.578125 689.453125 C 472.675781 690.808594 469.738281 692.085938 466.769531 693.28125 C 463.796875 694.476562 460.796875 695.589844 457.765625 696.621094 C 454.730469 697.652344 451.671875 698.601562 448.589844 699.464844 C 445.503906 700.332031 442.402344 701.109375 439.273438 701.804688 C 436.148438 702.5 433.003906 703.109375 429.84375 703.632812 C 426.683594 704.152344 423.511719 704.589844 420.328125 704.941406 C 417.144531 705.289062 413.953125 705.550781 410.757812 705.726562 C 407.558594 705.902344 404.359375 705.988281 401.15625 705.988281 C 397.953125 705.988281 394.75 705.902344 391.554688 705.726562 C 388.355469 705.550781 385.164062 705.289062 381.980469 704.941406 C 378.796875 704.589844 375.625 704.152344 372.464844 703.632812 C 369.304688 703.109375 366.164062 702.5 363.035156 701.804688 C 359.910156 701.109375 356.804688 700.332031 353.71875 699.464844 C 350.636719 698.601562 347.578125 697.652344 344.546875 696.621094 C 341.511719 695.589844 338.511719 694.476562 335.539062 693.28125 C 332.570312 692.085938 329.632812 690.8125 326.730469 689.453125 C 323.828125 688.097656 320.96875 686.664062 318.144531 685.152344 C 315.320312 683.640625 312.542969 682.050781 309.804688 680.386719 C 307.070312 678.722656 304.378906 676.984375 301.738281 675.171875 C 299.097656 673.359375 296.507812 671.476562 293.96875 669.523438 C 291.429688 667.570312 288.949219 665.550781 286.519531 663.460938 C 284.09375 661.371094 281.722656 659.21875 279.414062 657 C 277.101562 654.78125 274.855469 652.5 272.667969 650.160156 C 270.484375 647.820312 268.363281 645.421875 266.308594 642.960938 L 272.304688 642.960938 C 287.226562 642.972656 302.023438 641.605469 316.691406 638.871094 C 331.359375 636.136719 345.652344 632.074219 359.570312 626.691406 C 368.703125 623.167969 377.585938 619.105469 386.226562 614.503906 C 394.863281 609.902344 403.191406 604.796875 411.210938 599.183594 C 419.226562 593.570312 426.878906 587.492188 434.160156 580.949219 C 441.4375 574.410156 448.296875 567.449219 454.730469 560.078125 C 464.386719 549.15625 472.921875 537.417969 480.332031 524.867188 C 485.660156 516.003906 490.390625 506.832031 494.523438 497.355469 C 498.65625 487.875 502.15625 478.167969 505.023438 468.234375 C 507.890625 458.296875 510.101562 448.21875 511.65625 437.992188 C 513.207031 427.769531 514.089844 417.488281 514.304688 407.148438 C 514.304688 405.152344 514.304688 403.152344 514.304688 401.15625 C 514.304688 399.15625 514.304688 397.15625 514.304688 395.160156 C 516.683594 397.0625 518.871094 399.0625 521.058594 401.15625 C 527.726562 407.25 533.847656 413.847656 539.425781 420.949219 C 546.859375 430.304688 553.257812 440.320312 558.628906 450.996094 C 564 461.671875 568.222656 472.78125 571.304688 484.328125 C 575.308594 499.289062 577.308594 514.515625 577.300781 530.003906 C 577.226562 544.234375 575.480469 558.253906 572.066406 572.066406 Z M 692.445312 467.386719 C 689.742188 473.976562 686.652344 480.375 683.175781 486.585938 C 679.695312 492.800781 675.855469 498.78125 671.65625 504.53125 C 667.453125 510.277344 662.921875 515.753906 658.058594 520.953125 C 653.195312 526.15625 648.035156 531.042969 642.582031 535.621094 L 642.582031 529.625 C 642.609375 514.046875 641.132812 498.613281 638.15625 483.324219 C 635.175781 468.03125 630.753906 453.171875 624.882812 438.746094 C 619.695312 425.476562 613.351562 412.789062 605.847656 400.679688 C 593.203125 380.679688 577.976562 362.882812 560.171875 347.292969 C 550.820312 339.167969 540.925781 331.777344 530.480469 325.121094 C 519.242188 318.019531 507.503906 311.867188 495.269531 306.660156 C 481.316406 300.738281 466.929688 296.179688 452.109375 292.976562 C 437.292969 289.777344 422.304688 287.992188 407.148438 287.625 L 395.160156 287.625 C 397.0625 285.34375 399.15625 283.058594 401.15625 280.871094 C 407.230469 274.316406 413.765625 268.257812 420.757812 262.695312 C 431.199219 254.367188 442.460938 247.355469 454.539062 241.664062 C 465.386719 236.5 476.648438 232.5 488.324219 229.671875 C 502.011719 226.28125 515.902344 224.597656 530.003906 224.628906 C 544.234375 224.625 558.253906 226.339844 572.066406 229.769531 C 575.410156 243.558594 577.089844 257.546875 577.109375 271.734375 C 577.140625 285.835938 575.457031 299.730469 572.066406 313.414062 C 592.054688 326.625 610.230469 341.976562 626.59375 359.472656 C 632.042969 345.492188 636.140625 331.125 638.894531 316.371094 C 641.644531 301.621094 643 286.742188 642.960938 271.734375 L 642.960938 265.644531 C 644.730469 267.136719 646.472656 268.660156 648.179688 270.222656 C 649.890625 271.78125 651.566406 273.375 653.214844 275 C 654.859375 276.625 656.472656 278.285156 658.054688 279.972656 C 659.636719 281.664062 661.183594 283.382812 662.699219 285.132812 C 664.210938 286.882812 665.6875 288.664062 667.132812 290.472656 C 668.574219 292.28125 669.984375 294.117188 671.355469 295.980469 C 672.726562 297.847656 674.058594 299.734375 675.355469 301.652344 C 676.652344 303.570312 677.910156 305.511719 679.132812 307.476562 C 680.351562 309.441406 681.53125 311.433594 682.675781 313.445312 C 683.816406 315.457031 684.917969 317.492188 685.980469 319.546875 C 687.042969 321.605469 688.0625 323.679688 689.042969 325.777344 C 690.023438 327.871094 690.960938 329.988281 691.859375 332.121094 C 692.753906 334.253906 693.609375 336.40625 694.421875 338.570312 C 695.234375 340.738281 696.003906 342.921875 696.730469 345.117188 C 697.457031 347.3125 698.140625 349.523438 698.777344 351.75 C 699.417969 353.972656 700.011719 356.207031 700.5625 358.457031 C 701.117188 360.703125 701.621094 362.960938 702.085938 365.226562 C 702.546875 367.496094 702.964844 369.769531 703.335938 372.054688 C 703.710938 374.339844 704.039062 376.628906 704.320312 378.925781 C 704.601562 381.222656 704.839844 383.523438 705.03125 385.832031 C 705.226562 388.136719 705.371094 390.445312 705.472656 392.757812 C 705.574219 395.070312 705.628906 397.382812 705.640625 399.695312 C 705.648438 402.007812 705.613281 404.324219 705.53125 406.636719 C 705.453125 408.949219 705.324219 411.257812 705.152344 413.566406 C 704.980469 415.875 704.765625 418.175781 704.5 420.476562 C 704.238281 422.777344 703.929688 425.070312 703.578125 427.355469 C 703.226562 429.644531 702.828125 431.921875 702.382812 434.191406 C 701.941406 436.464844 701.457031 438.726562 700.921875 440.976562 C 700.390625 443.230469 699.816406 445.472656 699.195312 447.699219 C 698.574219 449.929688 697.914062 452.148438 697.207031 454.351562 C 696.5 456.554688 695.746094 458.742188 694.953125 460.914062 C 694.160156 463.089844 693.324219 465.246094 692.445312 467.386719 Z M 692.445312 467.386719 " fill-opacity="1" fill-rule="nonzero"/></svg>