<svg xmlns="http://www.w3.org/2000/svg" xmlns:xlink="http://www.w3.org/1999/xlink" width="1920" zoomAndPan="magnify" viewBox="0 0 1440 809.999993" height="1080" preserveAspectRatio="xMidYMid meet" version="1.0"><path fill="#ffffff" d="M 1322.980469 347.105469 C 1318.988281 340.347656 1314.351562 334.070312 1309.066406 328.269531 C 1303.785156 322.46875 1297.964844 317.265625 1291.609375 312.664062 L 1258.609375 346.351562 C 1259.992188 347.160156 1261.339844 348.015625 1262.660156 348.917969 C 1263.980469 349.820312 1265.269531 350.769531 1266.523438 351.765625 C 1267.777344 352.757812 1268.992188 353.796875 1270.171875 354.875 C 1271.351562 355.957031 1272.492188 357.078125 1273.59375 358.238281 C 1274.695312 359.398438 1275.75 360.597656 1276.769531 361.832031 C 1277.785156 363.070312 1278.753906 364.339844 1279.679688 365.644531 C 1280.605469 366.949219 1281.484375 368.285156 1282.316406 369.648438 C 1283.148438 371.015625 1283.929688 372.410156 1284.664062 373.832031 C 1285.394531 375.253906 1286.078125 376.703125 1286.707031 378.171875 C 1287.335938 379.640625 1287.914062 381.132812 1288.441406 382.644531 C 1288.964844 384.15625 1289.4375 385.683594 1289.851562 387.226562 C 1290.269531 388.769531 1290.632812 390.328125 1290.9375 391.898438 C 1291.246094 393.46875 1291.496094 395.046875 1291.691406 396.636719 C 1291.886719 398.222656 1292.023438 399.816406 1292.105469 401.414062 C 1292.1875 403.011719 1292.214844 404.609375 1292.183594 406.207031 C 1292.152344 407.808594 1292.066406 409.40625 1291.921875 410.996094 C 1291.777344 412.589844 1291.578125 414.175781 1291.320312 415.757812 C 1291.066406 417.335938 1290.753906 418.902344 1290.386719 420.460938 C 1290.019531 422.015625 1289.597656 423.558594 1289.121094 425.085938 C 1288.644531 426.613281 1288.113281 428.121094 1287.53125 429.613281 C 1286.949219 431.101562 1286.316406 432.570312 1285.628906 434.011719 C 1284.941406 435.457031 1284.203125 436.875 1283.417969 438.269531 C 1282.628906 439.660156 1281.792969 441.023438 1280.910156 442.359375 C 1280.027344 443.691406 1279.097656 444.992188 1278.121094 446.261719 C 1277.144531 447.527344 1276.125 448.757812 1275.0625 449.957031 C 1274 451.152344 1272.898438 452.308594 1271.753906 453.425781 C 1270.609375 454.542969 1269.425781 455.617188 1268.203125 456.652344 C 1266.984375 457.683594 1265.730469 458.675781 1264.4375 459.621094 C 1263.148438 460.566406 1261.824219 461.464844 1260.46875 462.3125 C 1259.117188 463.164062 1257.734375 463.96875 1256.320312 464.722656 C 1254.910156 465.476562 1253.476562 466.179688 1252.015625 466.828125 C 1250.554688 467.480469 1249.070312 468.082031 1247.566406 468.628906 L 1247.566406 404.761719 L 1201.269531 404.761719 L 1201.269531 468.441406 C 1199.976562 467.964844 1198.707031 467.453125 1197.445312 466.898438 C 1196.1875 466.347656 1194.949219 465.757812 1193.726562 465.132812 C 1192.503906 464.503906 1191.304688 463.839844 1190.121094 463.140625 C 1188.941406 462.4375 1187.78125 461.703125 1186.644531 460.933594 C 1185.507812 460.160156 1184.394531 459.355469 1183.304688 458.519531 C 1182.21875 457.679688 1181.15625 456.808594 1180.121094 455.90625 C 1179.085938 455.003906 1178.078125 454.070312 1177.101562 453.105469 C 1176.121094 452.140625 1175.171875 451.148438 1174.253906 450.128906 C 1173.335938 449.105469 1172.449219 448.058594 1171.597656 446.980469 C 1170.742188 445.90625 1169.921875 444.804688 1169.132812 443.679688 C 1168.34375 442.554688 1167.59375 441.40625 1166.875 440.234375 C 1166.15625 439.0625 1165.476562 437.871094 1164.832031 436.660156 C 1164.183594 435.445312 1163.578125 434.214844 1163.007812 432.964844 C 1162.4375 431.714844 1161.902344 430.449219 1161.410156 429.167969 C 1160.917969 427.886719 1160.460938 426.589844 1160.046875 425.28125 C 1159.632812 423.96875 1159.257812 422.648438 1158.921875 421.316406 C 1158.589844 419.984375 1158.292969 418.644531 1158.042969 417.292969 C 1157.789062 415.941406 1157.578125 414.585938 1157.40625 413.222656 C 1157.234375 411.859375 1157.105469 410.492188 1157.019531 409.121094 C 1156.929688 407.75 1156.886719 406.378906 1156.878906 405.007812 C 1156.875 403.632812 1156.914062 402.257812 1156.992188 400.886719 C 1157.074219 399.515625 1157.191406 398.148438 1157.355469 396.785156 C 1157.515625 395.421875 1157.722656 394.0625 1157.964844 392.710938 C 1158.210938 391.359375 1158.496094 390.015625 1158.824219 388.683594 C 1159.148438 387.347656 1159.515625 386.023438 1159.921875 384.710938 C 1160.328125 383.402344 1160.777344 382.101562 1161.261719 380.816406 C 1161.746094 379.53125 1162.273438 378.261719 1162.835938 377.011719 C 1163.398438 375.757812 1163.996094 374.523438 1164.636719 373.304688 C 1165.273438 372.089844 1165.949219 370.894531 1166.660156 369.71875 C 1167.367188 368.542969 1168.113281 367.386719 1168.894531 366.257812 C 1169.675781 365.128906 1170.488281 364.023438 1171.335938 362.941406 C 1172.183594 361.859375 1173.066406 360.804688 1173.976562 359.777344 C 1175.230469 358.398438 1176.550781 357.019531 1177.929688 355.699219 L 1178.304688 355.324219 C 1185.054688 349.070312 1192.75 344.363281 1201.394531 341.207031 L 1201.394531 293.214844 C 1196.191406 294.28125 1191.089844 295.707031 1186.089844 297.492188 C 1181.089844 299.277344 1176.238281 301.40625 1171.539062 303.871094 C 1166.835938 306.339844 1162.332031 309.125 1158.023438 312.226562 C 1153.710938 315.324219 1149.640625 318.714844 1145.808594 322.386719 L 1145.429688 322.699219 L 1140.539062 327.71875 L 1140.097656 328.222656 L 1082.757812 386.753906 L 1020.019531 450.558594 C 1019.015625 451.6875 1018.011719 452.753906 1016.882812 453.820312 C 1015.605469 455.046875 1014.28125 456.21875 1012.914062 457.339844 C 1011.546875 458.460938 1010.136719 459.527344 1008.683594 460.539062 C 1007.234375 461.546875 1005.746094 462.5 1004.21875 463.394531 C 1002.691406 464.289062 1001.132812 465.125 999.542969 465.894531 C 997.949219 466.667969 996.332031 467.378906 994.683594 468.023438 C 993.039062 468.671875 991.367188 469.25 989.675781 469.765625 C 987.984375 470.28125 986.273438 470.730469 984.546875 471.113281 C 982.820312 471.496094 981.082031 471.808594 979.328125 472.054688 C 977.578125 472.300781 975.820312 472.476562 974.054688 472.585938 C 972.289062 472.695312 970.519531 472.734375 968.753906 472.703125 C 966.984375 472.671875 965.21875 472.574219 963.457031 472.40625 C 961.695312 472.238281 959.945312 472.003906 958.203125 471.699219 C 956.460938 471.394531 954.734375 471.019531 953.019531 470.582031 C 951.304688 470.140625 949.613281 469.636719 947.9375 469.0625 C 946.265625 468.492188 944.617188 467.855469 942.992188 467.152344 C 941.367188 466.453125 939.773438 465.691406 938.210938 464.863281 L 1029.679688 371.949219 L 1062.867188 338.007812 C 1061.695312 336.386719 1060.480469 334.796875 1059.222656 333.238281 C 1057.964844 331.679688 1056.667969 330.15625 1055.328125 328.667969 C 1053.992188 327.175781 1052.617188 325.722656 1051.203125 324.304688 C 1049.789062 322.886719 1048.339844 321.507812 1046.851562 320.167969 C 1045.363281 318.824219 1043.84375 317.523438 1042.289062 316.261719 C 1040.734375 315 1039.148438 313.78125 1037.527344 312.605469 C 1035.910156 311.425781 1034.261719 310.292969 1032.582031 309.199219 C 1030.902344 308.109375 1029.195312 307.0625 1027.464844 306.0625 C 1025.730469 305.058594 1023.96875 304.105469 1022.1875 303.195312 C 1020.402344 302.285156 1018.597656 301.425781 1016.765625 300.609375 C 1014.9375 299.796875 1013.089844 299.03125 1011.21875 298.316406 C 1009.351562 297.597656 1007.460938 296.929688 1005.558594 296.3125 C 1003.652344 295.695312 1001.734375 295.128906 999.800781 294.613281 C 997.867188 294.09375 995.917969 293.628906 993.960938 293.214844 C 992 292.800781 990.03125 292.4375 988.054688 292.125 C 986.078125 291.816406 984.09375 291.558594 982.101562 291.351562 C 980.109375 291.144531 978.113281 290.992188 976.113281 290.886719 C 974.113281 290.785156 972.113281 290.738281 970.113281 290.742188 C 968.109375 290.746094 966.109375 290.800781 964.109375 290.910156 C 962.109375 291.019531 960.117188 291.179688 958.125 291.394531 C 956.132812 291.609375 954.148438 291.875 952.171875 292.191406 C 950.195312 292.507812 948.230469 292.878906 946.273438 293.300781 C 944.316406 293.722656 942.371094 294.195312 940.4375 294.71875 C 938.503906 295.242188 936.585938 295.816406 934.683594 296.441406 C 932.78125 297.066406 930.898438 297.738281 929.03125 298.460938 C 927.164062 299.1875 925.316406 299.957031 923.492188 300.777344 C 921.664062 301.597656 919.863281 302.46875 918.082031 303.382812 C 916.300781 304.296875 914.542969 305.257812 912.816406 306.265625 C 911.085938 307.273438 909.382812 308.328125 907.707031 309.425781 C 906.03125 310.523438 904.386719 311.664062 902.773438 312.847656 C 901.160156 314.03125 899.574219 315.253906 898.027344 316.523438 C 896.476562 317.789062 894.960938 319.097656 893.476562 320.441406 L 893.039062 320.882812 L 884.632812 329.476562 L 828.921875 386.691406 L 765.492188 451.4375 C 764.917969 452.097656 764.3125 452.722656 763.671875 453.320312 C 762.894531 454.109375 762.097656 454.882812 761.28125 455.632812 C 760.464844 456.382812 759.632812 457.113281 758.78125 457.824219 C 757.929688 458.535156 757.058594 459.222656 756.171875 459.890625 C 755.289062 460.554688 754.386719 461.203125 753.46875 461.824219 C 752.550781 462.449219 751.617188 463.046875 750.671875 463.625 C 749.726562 464.203125 748.765625 464.757812 747.789062 465.285156 C 746.816406 465.816406 745.828125 466.324219 744.832031 466.804688 C 743.832031 467.285156 742.820312 467.742188 741.800781 468.175781 C 740.777344 468.605469 739.746094 469.011719 738.707031 469.394531 C 737.664062 469.777344 736.613281 470.132812 735.554688 470.460938 C 734.496094 470.792969 733.429688 471.097656 732.355469 471.375 C 731.285156 471.652344 730.203125 471.902344 729.117188 472.125 C 728.03125 472.351562 726.941406 472.550781 725.84375 472.71875 C 724.75 472.890625 723.648438 473.035156 722.546875 473.152344 C 721.445312 473.269531 720.339844 473.359375 719.230469 473.421875 C 718.125 473.484375 717.015625 473.519531 715.90625 473.527344 C 714.796875 473.535156 713.691406 473.519531 712.582031 473.472656 C 711.472656 473.425781 710.367188 473.351562 709.261719 473.253906 C 708.160156 473.152344 707.058594 473.023438 705.957031 472.871094 C 704.859375 472.714844 703.765625 472.535156 702.675781 472.324219 C 701.589844 472.117188 700.503906 471.882812 699.425781 471.621094 C 698.347656 471.359375 697.277344 471.074219 696.214844 470.757812 C 695.152344 470.445312 694.09375 470.105469 693.046875 469.738281 C 692 469.375 690.964844 468.980469 689.9375 468.566406 C 688.910156 468.148438 687.890625 467.707031 686.886719 467.242188 C 685.878906 466.773438 684.886719 466.28125 683.902344 465.769531 C 682.921875 465.253906 681.953125 464.714844 680.996094 464.148438 C 680.042969 463.585938 679.101562 463 678.175781 462.390625 C 677.246094 461.78125 676.335938 461.152344 675.441406 460.496094 C 674.542969 459.84375 673.664062 459.167969 672.804688 458.46875 C 671.941406 457.773438 671.09375 457.054688 670.269531 456.316406 C 669.441406 455.578125 668.632812 454.820312 667.84375 454.042969 C 667.050781 453.261719 666.28125 452.464844 665.53125 451.648438 C 664.78125 450.835938 664.050781 450 663.339844 449.148438 C 662.628906 448.296875 661.941406 447.425781 661.273438 446.542969 C 660.605469 445.65625 659.960938 444.753906 659.335938 443.835938 C 658.714844 442.917969 658.113281 441.988281 657.535156 441.039062 C 656.960938 440.09375 656.40625 439.132812 655.875 438.160156 C 655.347656 437.183594 654.839844 436.199219 654.359375 435.199219 C 653.875 434.199219 653.417969 433.191406 652.988281 432.167969 C 652.554688 431.148438 652.148438 430.117188 651.765625 429.074219 C 651.386719 428.03125 651.03125 426.984375 650.699219 425.925781 C 650.371094 424.867188 650.066406 423.800781 649.789062 422.726562 C 649.511719 421.652344 649.261719 420.570312 649.035156 419.484375 C 648.8125 418.398438 648.613281 417.308594 648.441406 416.210938 C 648.269531 415.117188 648.128906 414.019531 648.011719 412.914062 C 647.894531 411.8125 647.804688 410.707031 647.742188 409.601562 C 647.679688 408.492188 647.640625 407.382812 647.632812 406.273438 C 647.625 405.167969 647.644531 404.058594 647.691406 402.949219 C 647.738281 401.839844 647.808594 400.734375 647.910156 399.632812 C 648.011719 398.527344 648.136719 397.425781 648.292969 396.328125 C 648.445312 395.230469 648.628906 394.136719 648.835938 393.046875 C 649.042969 391.957031 649.277344 390.871094 649.539062 389.796875 C 649.800781 388.71875 650.089844 387.648438 650.402344 386.582031 C 650.71875 385.519531 651.058594 384.464844 651.421875 383.417969 C 651.789062 382.371094 652.179688 381.332031 652.597656 380.304688 C 653.011719 379.277344 653.457031 378.261719 653.921875 377.253906 C 654.386719 376.246094 654.878906 375.253906 655.394531 374.273438 C 655.910156 373.289062 656.449219 372.320312 657.011719 371.367188 C 657.574219 370.410156 658.160156 369.46875 658.769531 368.542969 C 659.378906 367.617188 660.011719 366.703125 660.664062 365.808594 C 661.320312 364.914062 661.996094 364.035156 662.691406 363.171875 C 663.390625 362.308594 664.105469 361.464844 664.84375 360.636719 C 665.582031 359.808594 666.34375 359 667.121094 358.210938 L 667.433594 358.210938 L 668.75 356.765625 C 669.679688 355.859375 670.636719 354.980469 671.613281 354.128906 C 672.59375 353.277344 673.597656 352.457031 674.625 351.660156 C 675.652344 350.867188 676.699219 350.101562 677.769531 349.371094 C 678.839844 348.636719 679.933594 347.933594 681.042969 347.261719 C 682.15625 346.589844 683.285156 345.953125 684.433594 345.34375 C 685.578125 344.738281 686.742188 344.164062 687.925781 343.625 C 689.105469 343.085938 690.300781 342.582031 691.511719 342.109375 C 692.71875 341.640625 693.941406 341.203125 695.175781 340.804688 C 696.410156 340.402344 697.65625 340.039062 698.914062 339.707031 C 700.167969 339.378906 701.433594 339.085938 702.703125 338.828125 C 703.976562 338.574219 705.257812 338.351562 706.542969 338.167969 C 707.828125 337.984375 709.117188 337.839844 710.410156 337.730469 C 711.703125 337.621094 713 337.550781 714.296875 337.515625 C 715.59375 337.480469 716.890625 337.484375 718.1875 337.523438 C 719.484375 337.5625 720.78125 337.640625 722.074219 337.753906 C 723.367188 337.867188 724.65625 338.019531 725.941406 338.207031 C 727.226562 338.394531 728.503906 338.621094 729.773438 338.882812 C 731.046875 339.144531 732.308594 339.441406 733.5625 339.773438 C 734.816406 340.109375 736.0625 340.476562 737.296875 340.882812 C 738.527344 341.289062 739.75 341.730469 740.957031 342.207031 C 742.164062 342.679688 743.359375 343.191406 744.535156 343.734375 C 745.714844 344.277344 746.878906 344.855469 748.023438 345.46875 C 749.167969 346.078125 750.292969 346.722656 751.402344 347.398438 C 752.511719 348.070312 753.601562 348.777344 754.667969 349.515625 C 755.734375 350.253906 756.78125 351.023438 757.804688 351.820312 C 758.828125 352.617188 759.828125 353.445312 760.804688 354.300781 C 761.78125 355.15625 762.734375 356.039062 763.660156 356.949219 C 764.585938 357.859375 765.484375 358.796875 766.355469 359.757812 C 767.226562 360.71875 768.070312 361.703125 768.886719 362.714844 C 769.703125 363.726562 770.488281 364.757812 771.242188 365.8125 C 772 366.867188 772.722656 367.945312 773.417969 369.042969 C 774.113281 370.136719 774.773438 371.253906 775.40625 372.390625 L 808.65625 338.449219 C 807.480469 336.820312 806.261719 335.226562 805 333.664062 C 803.742188 332.101562 802.441406 330.574219 801.097656 329.082031 C 799.757812 327.589844 798.378906 326.132812 796.960938 324.710938 C 795.542969 323.289062 794.089844 321.910156 792.597656 320.566406 C 791.105469 319.222656 789.582031 317.917969 788.023438 316.652344 C 786.460938 315.390625 784.871094 314.167969 783.246094 312.988281 C 781.621094 311.808594 779.96875 310.675781 778.285156 309.582031 C 776.601562 308.492188 774.890625 307.445312 773.148438 306.441406 C 771.410156 305.441406 769.644531 304.484375 767.855469 303.574219 C 766.066406 302.667969 764.253906 301.804688 762.417969 300.992188 C 760.585938 300.179688 758.730469 299.417969 756.855469 298.699219 C 754.976562 297.984375 753.085938 297.320312 751.175781 296.707031 C 749.265625 296.089844 747.339844 295.523438 745.398438 295.011719 C 743.457031 294.496094 741.507812 294.035156 739.542969 293.625 C 737.578125 293.214844 735.601562 292.855469 733.621094 292.550781 C 731.636719 292.242188 729.644531 291.988281 727.648438 291.785156 C 725.652344 291.585938 723.652344 291.4375 721.644531 291.339844 C 719.640625 291.246094 717.636719 291.203125 715.628906 291.210938 C 713.621094 291.222656 711.617188 291.285156 709.613281 291.398438 C 707.609375 291.515625 705.609375 291.683594 703.613281 291.90625 C 701.617188 292.125 699.632812 292.398438 697.652344 292.726562 C 695.671875 293.050781 693.699219 293.429688 691.738281 293.859375 C 689.777344 294.289062 687.832031 294.769531 685.894531 295.304688 C 683.960938 295.835938 682.042969 296.421875 680.136719 297.054688 C 678.234375 297.6875 676.347656 298.371094 674.476562 299.105469 C 672.609375 299.839844 670.761719 300.621094 668.9375 301.453125 C 667.109375 302.285156 665.304688 303.164062 663.523438 304.089844 C 661.742188 305.015625 659.988281 305.988281 658.257812 307.007812 C 656.53125 308.027344 654.828125 309.089844 653.15625 310.199219 C 651.480469 311.304688 649.839844 312.457031 648.226562 313.652344 C 646.613281 314.847656 645.035156 316.085938 643.488281 317.363281 C 641.941406 318.644531 640.429688 319.960938 638.953125 321.320312 L 630.984375 329.476562 L 574.519531 387.070312 L 509.773438 453.070312 C 508.253906 454.59375 506.667969 456.039062 505.007812 457.410156 C 503.351562 458.78125 501.632812 460.070312 499.851562 461.277344 C 498.070312 462.488281 496.234375 463.605469 494.347656 464.640625 C 492.460938 465.671875 490.527344 466.613281 488.550781 467.464844 C 486.574219 468.3125 484.5625 469.066406 482.511719 469.722656 C 480.464844 470.378906 478.390625 470.9375 476.289062 471.398438 C 474.1875 471.855469 472.066406 472.214844 469.929688 472.472656 C 467.792969 472.730469 465.652344 472.886719 463.5 472.941406 C 461.347656 472.992188 459.199219 472.945312 457.054688 472.792969 C 454.90625 472.640625 452.773438 472.390625 450.652344 472.035156 C 448.53125 471.679688 446.429688 471.226562 444.351562 470.671875 C 442.273438 470.117188 440.222656 469.464844 438.207031 468.714844 C 436.191406 467.964844 434.214844 467.121094 432.277344 466.183594 C 430.339844 465.242188 428.453125 464.214844 426.617188 463.097656 C 424.777344 461.980469 422.996094 460.777344 421.273438 459.488281 C 419.546875 458.203125 417.890625 456.835938 416.296875 455.390625 C 414.390625 453.695312 412.613281 451.875 410.964844 449.933594 C 410.175781 449.042969 409.414062 448.132812 408.671875 447.203125 C 407.933594 446.273438 407.21875 445.324219 406.53125 444.355469 C 405.839844 443.386719 405.179688 442.402344 404.539062 441.398438 C 403.902344 440.398438 403.292969 439.378906 402.707031 438.34375 C 402.125 437.308594 401.566406 436.261719 401.039062 435.195312 C 400.507812 434.132812 400.007812 433.054688 399.535156 431.964844 C 399.0625 430.875 398.621094 429.773438 398.207031 428.660156 C 397.792969 427.546875 397.40625 426.421875 397.050781 425.289062 C 396.695312 424.15625 396.371094 423.011719 396.074219 421.863281 C 395.78125 420.710938 395.515625 419.550781 395.28125 418.386719 C 395.046875 417.222656 394.84375 416.054688 394.667969 414.878906 C 394.496094 413.703125 394.355469 412.523438 394.242188 411.339844 C 394.132812 410.15625 394.050781 408.972656 394.003906 407.785156 C 393.957031 406.597656 393.9375 405.410156 393.953125 404.222656 C 393.964844 403.035156 394.011719 401.847656 394.085938 400.660156 C 394.164062 399.476562 394.269531 398.292969 394.40625 397.113281 C 394.546875 395.933594 394.714844 394.757812 394.914062 393.585938 C 395.117188 392.414062 395.347656 391.25 395.605469 390.089844 C 395.867188 388.929688 396.160156 387.78125 396.480469 386.636719 C 396.804688 385.492188 397.15625 384.359375 397.535156 383.234375 C 397.917969 382.105469 398.328125 380.992188 398.769531 379.890625 C 399.207031 378.785156 399.675781 377.695312 400.175781 376.613281 C 400.671875 375.535156 401.199219 374.472656 401.75 373.417969 C 402.304688 372.367188 402.886719 371.332031 403.492188 370.3125 C 404.101562 369.289062 404.734375 368.285156 405.394531 367.296875 C 406.054688 366.3125 406.742188 365.339844 407.453125 364.390625 C 408.164062 363.4375 408.902344 362.503906 409.660156 361.59375 C 410.421875 360.679688 411.207031 359.789062 412.011719 358.917969 C 412.820312 358.042969 413.652344 357.195312 414.503906 356.367188 C 415.355469 355.539062 416.226562 354.734375 417.121094 353.953125 C 418.015625 353.167969 418.929688 352.410156 419.867188 351.675781 C 420.800781 350.941406 421.753906 350.234375 422.722656 349.550781 C 423.695312 348.867188 424.683594 348.207031 425.691406 347.574219 C 426.695312 346.945312 427.71875 346.339844 428.757812 345.761719 C 429.792969 345.183594 430.847656 344.632812 431.914062 344.109375 C 432.980469 343.585938 434.058594 343.089844 435.152344 342.625 C 436.246094 342.160156 437.351562 341.722656 438.464844 341.3125 C 439.582031 340.90625 440.707031 340.527344 441.84375 340.175781 C 442.980469 339.828125 444.125 339.507812 445.277344 339.21875 C 446.429688 338.929688 447.585938 338.671875 448.753906 338.445312 C 449.917969 338.21875 451.089844 338.019531 452.265625 337.855469 C 453.445312 337.6875 454.625 337.550781 455.808594 337.445312 C 456.992188 337.34375 458.175781 337.269531 459.363281 337.226562 C 460.550781 337.1875 461.738281 337.175781 462.925781 337.195312 C 464.113281 337.214844 465.300781 337.265625 466.488281 337.351562 C 467.671875 337.433594 468.855469 337.546875 470.035156 337.691406 C 471.210938 337.835938 472.386719 338.011719 473.558594 338.21875 C 474.726562 338.425781 475.890625 338.660156 477.050781 338.929688 C 478.207031 339.199219 479.355469 339.496094 480.5 339.824219 C 481.640625 340.152344 482.773438 340.507812 483.894531 340.898438 C 485.019531 341.285156 486.132812 341.703125 487.234375 342.148438 C 488.332031 342.59375 489.421875 343.070312 490.5 343.574219 C 491.574219 344.074219 492.636719 344.605469 493.683594 345.167969 C 494.734375 345.726562 495.765625 346.3125 496.785156 346.925781 C 497.800781 347.539062 498.800781 348.179688 499.785156 348.84375 C 500.769531 349.511719 501.734375 350.203125 502.683594 350.917969 C 503.632812 351.636719 504.558594 352.378906 505.46875 353.144531 C 506.375 353.910156 507.265625 354.699219 508.132812 355.507812 C 508.996094 356.320312 509.84375 357.15625 510.667969 358.011719 C 511.488281 358.871094 512.289062 359.746094 513.066406 360.648438 C 513.84375 361.546875 514.597656 362.464844 515.324219 363.402344 C 516.054688 364.339844 516.757812 365.296875 517.4375 366.273438 C 518.117188 367.246094 518.769531 368.242188 519.394531 369.25 C 520.019531 370.257812 520.621094 371.285156 521.191406 372.324219 L 554.382812 338.449219 C 552.742188 336.179688 551.019531 333.976562 549.214844 331.835938 C 547.410156 329.695312 545.53125 327.621094 543.578125 325.617188 C 541.621094 323.617188 539.59375 321.6875 537.496094 319.835938 C 535.398438 317.980469 533.234375 316.207031 531.007812 314.511719 C 528.78125 312.816406 526.492188 311.207031 524.144531 309.679688 C 521.800781 308.15625 519.398438 306.714844 516.945312 305.367188 C 514.496094 304.019531 511.996094 302.761719 509.449219 301.59375 C 506.90625 300.429688 504.320312 299.359375 501.699219 298.382812 C 499.074219 297.40625 496.417969 296.527344 493.730469 295.75 C 491.039062 294.96875 488.328125 294.289062 485.589844 293.707031 C 482.851562 293.128906 480.09375 292.648438 477.320312 292.273438 C 474.546875 291.894531 471.761719 291.617188 468.96875 291.445312 C 466.175781 291.273438 463.378906 291.203125 460.578125 291.238281 C 457.78125 291.269531 454.984375 291.40625 452.195312 291.644531 C 449.40625 291.882812 446.632812 292.222656 443.867188 292.667969 C 441.101562 293.109375 438.359375 293.652344 435.636719 294.300781 C 432.910156 294.945312 430.214844 295.6875 427.546875 296.53125 C 424.875 297.375 422.242188 298.316406 419.640625 299.351562 C 417.042969 300.390625 414.484375 301.523438 411.964844 302.746094 C 409.449219 303.972656 406.980469 305.289062 404.5625 306.695312 C 402.140625 308.101562 399.777344 309.597656 397.464844 311.179688 C 395.15625 312.761719 392.910156 314.425781 390.722656 316.171875 C 388.535156 317.917969 386.414062 319.742188 384.359375 321.644531 C 382.304688 323.546875 380.324219 325.523438 378.417969 327.570312 C 376.511719 329.621094 374.679688 331.734375 372.929688 333.917969 C 371.175781 336.101562 369.507812 338.347656 367.917969 340.652344 C 366.332031 342.957031 364.832031 345.320312 363.417969 347.734375 C 362.007812 350.152344 360.683594 352.617188 359.453125 355.132812 C 358.21875 357.644531 357.082031 360.199219 356.039062 362.796875 C 354.996094 365.394531 354.046875 368.027344 353.199219 370.695312 C 352.347656 373.363281 351.597656 376.054688 350.945312 378.777344 C 350.292969 381.5 349.742188 384.242188 349.292969 387.007812 L 294.273438 330.542969 L 283.605469 319.6875 C 281.59375 317.894531 279.523438 316.171875 277.386719 314.519531 C 275.253906 312.871094 273.066406 311.300781 270.820312 309.808594 C 268.574219 308.3125 266.28125 306.902344 263.933594 305.570312 C 261.589844 304.238281 259.199219 302.992188 256.765625 301.832031 C 254.332031 300.667969 251.859375 299.59375 249.351562 298.609375 C 246.839844 297.621094 244.296875 296.726562 241.726562 295.921875 C 239.152344 295.117188 236.550781 294.402344 233.929688 293.78125 C 231.304688 293.160156 228.660156 292.628906 226 292.195312 C 223.339844 291.761719 220.664062 291.421875 217.980469 291.179688 C 215.292969 290.933594 212.601562 290.785156 209.90625 290.730469 C 207.210938 290.679688 204.515625 290.71875 201.824219 290.855469 C 199.128906 290.996094 196.445312 291.226562 193.765625 291.554688 C 191.089844 291.882812 188.429688 292.304688 185.78125 292.824219 C 183.136719 293.339844 180.511719 293.949219 177.90625 294.652344 C 175.304688 295.355469 172.726562 296.148438 170.179688 297.035156 C 167.632812 297.921875 165.121094 298.894531 162.644531 299.960938 C 160.164062 301.023438 157.726562 302.171875 155.332031 303.410156 C 152.933594 304.648438 150.585938 305.96875 148.28125 307.371094 C 145.980469 308.773438 143.730469 310.257812 141.53125 311.820312 C 139.335938 313.382812 137.195312 315.023438 135.113281 316.738281 C 133.03125 318.453125 131.015625 320.238281 129.058594 322.097656 C 127.105469 323.953125 125.21875 325.878906 123.402344 327.871094 C 121.582031 329.863281 119.839844 331.914062 118.164062 334.03125 C 116.492188 336.148438 114.898438 338.320312 113.378906 340.546875 C 111.859375 342.777344 110.421875 345.054688 109.066406 347.386719 C 107.710938 349.71875 106.4375 352.09375 105.25 354.515625 C 104.0625 356.933594 102.960938 359.394531 101.945312 361.894531 C 100.933594 364.390625 100.007812 366.925781 99.175781 369.488281 C 98.339844 372.054688 97.597656 374.644531 96.949219 377.261719 C 96.296875 379.878906 95.742188 382.515625 95.277344 385.171875 C 94.816406 387.828125 94.445312 390.496094 94.171875 393.179688 C 93.898438 395.863281 93.71875 398.550781 93.636719 401.246094 L 93.636719 408.589844 C 93.730469 411.539062 93.9375 414.484375 94.257812 417.421875 C 94.582031 420.355469 95.015625 423.273438 95.566406 426.175781 C 96.113281 429.078125 96.773438 431.957031 97.546875 434.804688 C 98.316406 437.65625 99.199219 440.472656 100.191406 443.257812 C 101.179688 446.039062 102.277344 448.777344 103.480469 451.476562 C 104.683594 454.171875 105.992188 456.820312 107.402344 459.414062 C 108.808594 462.011719 110.316406 464.546875 111.925781 467.023438 C 113.53125 469.503906 115.230469 471.917969 117.023438 474.261719 C 118.816406 476.609375 120.699219 478.882812 122.671875 481.082031 C 124.640625 483.28125 126.695312 485.402344 128.828125 487.445312 C 130.964844 489.484375 133.175781 491.441406 135.460938 493.308594 C 137.75 495.175781 140.105469 496.957031 142.527344 498.640625 C 144.953125 500.328125 147.441406 501.917969 149.988281 503.410156 C 152.539062 504.902344 155.140625 506.292969 157.796875 507.585938 C 160.453125 508.875 163.15625 510.058594 165.90625 511.140625 C 168.652344 512.222656 171.441406 513.195312 174.265625 514.058594 C 177.089844 514.921875 179.941406 515.675781 182.824219 516.320312 C 185.707031 516.960938 188.609375 517.492188 191.535156 517.90625 C 194.460938 518.324219 197.394531 518.628906 200.34375 518.816406 C 203.289062 519.003906 206.238281 519.078125 209.191406 519.039062 C 212.144531 519 215.09375 518.84375 218.035156 518.574219 C 220.976562 518.304688 223.902344 517.921875 226.8125 517.425781 C 229.726562 516.929688 232.613281 516.320312 235.476562 515.601562 C 238.339844 514.878906 241.171875 514.046875 243.972656 513.105469 C 246.773438 512.167969 249.53125 511.117188 252.25 509.964844 C 254.96875 508.808594 257.636719 507.550781 260.257812 506.1875 C 262.878906 504.824219 265.441406 503.359375 267.949219 501.800781 C 270.453125 500.238281 272.898438 498.582031 275.277344 496.828125 C 277.652344 495.078125 279.960938 493.238281 282.195312 491.304688 C 284.429688 489.375 286.585938 487.363281 288.664062 485.261719 C 290.746094 483.164062 292.738281 480.988281 294.648438 478.734375 C 296.558594 476.484375 298.378906 474.160156 300.105469 471.765625 L 266.917969 437.886719 C 266.351562 438.90625 265.757812 439.910156 265.136719 440.898438 C 264.519531 441.890625 263.875 442.863281 263.203125 443.816406 C 262.535156 444.773438 261.839844 445.710938 261.121094 446.632812 C 260.402344 447.550781 259.664062 448.453125 258.898438 449.335938 C 258.132812 450.21875 257.347656 451.078125 256.539062 451.917969 C 255.726562 452.761719 254.898438 453.582031 254.046875 454.378906 C 253.195312 455.175781 252.324219 455.953125 251.433594 456.707031 C 250.539062 457.460938 249.628906 458.191406 248.699219 458.894531 C 247.773438 459.601562 246.824219 460.285156 245.859375 460.941406 C 244.894531 461.597656 243.914062 462.230469 242.917969 462.839844 C 241.921875 463.445312 240.910156 464.027344 239.882812 464.582031 C 238.855469 465.136719 237.816406 465.664062 236.761719 466.164062 C 235.707031 466.664062 234.640625 467.136719 233.5625 467.582031 C 232.480469 468.027344 231.394531 468.445312 230.292969 468.835938 C 229.191406 469.226562 228.082031 469.585938 226.964844 469.917969 C 225.84375 470.25 224.71875 470.554688 223.582031 470.828125 C 222.449219 471.101562 221.308594 471.347656 220.160156 471.5625 C 219.015625 471.777344 217.863281 471.964844 216.707031 472.117188 C 215.546875 472.273438 214.386719 472.398438 213.226562 472.496094 C 212.0625 472.589844 210.898438 472.65625 209.730469 472.691406 C 208.5625 472.730469 207.398438 472.734375 206.230469 472.710938 C 205.0625 472.683594 203.898438 472.628906 202.734375 472.546875 C 201.570312 472.460938 200.410156 472.347656 199.25 472.203125 C 198.09375 472.058594 196.9375 471.882812 195.789062 471.679688 C 194.640625 471.472656 193.496094 471.238281 192.359375 470.976562 C 191.222656 470.714844 190.09375 470.421875 188.972656 470.097656 C 187.847656 469.777344 186.734375 469.425781 185.632812 469.046875 C 184.527344 468.667969 183.433594 468.261719 182.351562 467.824219 C 181.269531 467.390625 180.199219 466.925781 179.140625 466.4375 C 178.082031 465.945312 177.035156 465.429688 176.003906 464.882812 C 174.96875 464.339844 173.953125 463.769531 172.949219 463.171875 C 171.949219 462.574219 170.960938 461.949219 169.988281 461.300781 C 169.019531 460.652344 168.066406 459.980469 167.128906 459.28125 C 166.195312 458.585938 165.277344 457.863281 164.378906 457.121094 C 163.480469 456.375 162.601562 455.605469 161.742188 454.816406 C 160.882812 454.027344 160.046875 453.214844 159.226562 452.382812 C 158.410156 451.546875 157.617188 450.695312 156.84375 449.820312 C 156.070312 448.945312 155.320312 448.050781 154.59375 447.136719 C 153.867188 446.222656 153.164062 445.292969 152.484375 444.34375 C 151.808594 443.394531 151.152344 442.425781 150.523438 441.445312 C 149.894531 440.460938 149.292969 439.460938 148.714844 438.449219 C 148.136719 437.433594 147.585938 436.402344 147.0625 435.363281 C 146.539062 434.320312 146.042969 433.261719 145.570312 432.195312 C 145.101562 431.125 144.660156 430.046875 144.246094 428.953125 C 143.832031 427.863281 143.449219 426.761719 143.089844 425.652344 C 142.734375 424.539062 142.40625 423.421875 142.105469 422.292969 C 141.808594 421.164062 141.535156 420.027344 141.296875 418.886719 C 141.054688 417.746094 140.84375 416.597656 140.664062 415.445312 C 140.480469 414.289062 140.332031 413.132812 140.207031 411.972656 C 140.085938 410.8125 139.996094 409.648438 139.933594 408.484375 C 139.871094 407.316406 139.839844 406.152344 139.839844 404.984375 C 139.839844 403.816406 139.867188 402.652344 139.925781 401.484375 C 139.984375 400.320312 140.074219 399.15625 140.191406 397.996094 C 140.3125 396.832031 140.460938 395.675781 140.640625 394.523438 C 140.816406 393.371094 141.027344 392.222656 141.265625 391.078125 C 141.5 389.9375 141.769531 388.800781 142.066406 387.671875 C 142.363281 386.542969 142.6875 385.421875 143.042969 384.308594 C 143.398438 383.199219 143.78125 382.097656 144.191406 381.003906 C 144.601562 379.910156 145.042969 378.832031 145.507812 377.761719 C 145.976562 376.691406 146.46875 375.632812 146.992188 374.589844 C 147.515625 373.546875 148.0625 372.515625 148.636719 371.5 C 149.210938 370.484375 149.8125 369.484375 150.4375 368.5 C 151.066406 367.515625 151.71875 366.546875 152.394531 365.597656 C 153.070312 364.644531 153.769531 363.710938 154.496094 362.796875 C 155.21875 361.882812 155.96875 360.984375 156.738281 360.109375 C 157.511719 359.234375 158.304688 358.378906 159.117188 357.542969 C 159.933594 356.707031 160.769531 355.894531 161.625 355.101562 C 162.484375 354.308594 163.359375 353.539062 164.257812 352.792969 C 165.15625 352.046875 166.070312 351.320312 167.003906 350.621094 C 167.9375 349.921875 168.890625 349.246094 169.859375 348.597656 C 170.828125 347.945312 171.8125 347.320312 172.816406 346.722656 C 173.816406 346.121094 174.832031 345.546875 175.863281 345 C 176.894531 344.453125 177.9375 343.933594 178.996094 343.441406 C 180.054688 342.949219 181.125 342.480469 182.207031 342.042969 C 183.289062 341.605469 184.378906 341.195312 185.484375 340.8125 C 186.585938 340.433594 187.699219 340.078125 188.820312 339.753906 C 189.941406 339.429688 191.070312 339.136719 192.207031 338.871094 C 193.34375 338.605469 194.484375 338.367188 195.632812 338.160156 C 196.78125 337.953125 197.9375 337.777344 199.09375 337.628906 C 200.253906 337.480469 201.414062 337.363281 202.578125 337.277344 C 203.742188 337.191406 204.90625 337.132812 206.074219 337.105469 C 207.238281 337.078125 208.40625 337.082031 209.574219 337.113281 C 210.738281 337.144531 211.90625 337.210938 213.070312 337.300781 C 214.230469 337.394531 215.390625 337.519531 216.550781 337.671875 C 217.707031 337.824219 218.859375 338.007812 220.007812 338.21875 C 221.15625 338.433594 222.296875 338.675781 223.429688 338.945312 C 224.566406 339.21875 225.695312 339.519531 226.8125 339.847656 C 227.933594 340.175781 229.042969 340.535156 230.144531 340.921875 C 231.246094 341.308594 232.335938 341.722656 233.414062 342.167969 C 234.496094 342.609375 235.5625 343.082031 236.617188 343.578125 C 237.671875 344.078125 238.714844 344.605469 239.742188 345.15625 C 240.773438 345.707031 241.785156 346.285156 242.785156 346.890625 C 243.78125 347.496094 244.765625 348.125 245.730469 348.78125 C 246.695312 349.4375 247.644531 350.117188 248.574219 350.820312 C 249.507812 351.523438 250.417969 352.25 251.3125 353.003906 C 252.203125 353.753906 253.078125 354.527344 253.929688 355.324219 C 255.433594 356.710938 256.855469 358.175781 258.199219 359.714844 L 320.308594 423.144531 L 374.765625 478.730469 L 386.496094 490.648438 C 387.800781 491.800781 389.132812 492.921875 390.492188 494.011719 C 391.847656 495.101562 393.230469 496.160156 394.636719 497.1875 C 396.042969 498.214844 397.472656 499.210938 398.925781 500.171875 C 400.375 501.132812 401.851562 502.0625 403.34375 502.957031 C 404.839844 503.851562 406.351562 504.710938 407.886719 505.535156 C 409.417969 506.359375 410.972656 507.148438 412.539062 507.902344 C 414.109375 508.65625 415.695312 509.375 417.300781 510.054688 C 418.902344 510.734375 420.519531 511.378906 422.152344 511.988281 C 423.785156 512.59375 425.429688 513.164062 427.085938 513.695312 C 428.746094 514.226562 430.414062 514.71875 432.097656 515.175781 C 433.777344 515.628906 435.46875 516.046875 437.167969 516.425781 C 438.867188 516.804688 440.574219 517.140625 442.289062 517.441406 C 444.003906 517.742188 445.726562 518 447.453125 518.222656 C 449.183594 518.441406 450.914062 518.625 452.648438 518.765625 C 454.382812 518.90625 456.121094 519.007812 457.863281 519.070312 C 459.601562 519.132812 461.34375 519.152344 463.085938 519.136719 C 464.828125 519.117188 466.566406 519.058594 468.304688 518.960938 C 470.042969 518.863281 471.78125 518.726562 473.511719 518.550781 C 475.246094 518.375 476.972656 518.15625 478.695312 517.902344 C 480.417969 517.644531 482.132812 517.347656 483.839844 517.015625 C 485.550781 516.679688 487.25 516.304688 488.941406 515.894531 C 490.632812 515.480469 492.316406 515.027344 493.988281 514.539062 C 495.65625 514.050781 497.316406 513.523438 498.964844 512.957031 C 500.609375 512.390625 502.242188 511.785156 503.863281 511.148438 C 505.484375 510.507812 507.085938 509.828125 508.675781 509.113281 C 510.261719 508.402344 511.835938 507.652344 513.386719 506.867188 C 514.941406 506.078125 516.476562 505.257812 517.992188 504.402344 C 519.511719 503.546875 521.007812 502.65625 522.480469 501.730469 C 523.957031 500.804688 525.410156 499.847656 526.84375 498.855469 C 528.273438 497.863281 529.683594 496.839844 531.066406 495.785156 C 532.453125 494.730469 533.8125 493.644531 535.148438 492.523438 C 536.480469 491.40625 537.792969 490.257812 539.074219 489.082031 L 547.417969 480.546875 L 603.882812 423.144531 C 604.285156 425.65625 604.773438 428.15625 605.347656 430.636719 C 605.917969 433.117188 606.574219 435.574219 607.308594 438.011719 C 608.046875 440.449219 608.863281 442.859375 609.761719 445.242188 C 610.660156 447.625 611.636719 449.976562 612.691406 452.292969 C 613.75 454.609375 614.878906 456.890625 616.089844 459.128906 C 617.296875 461.371094 618.578125 463.570312 619.933594 465.726562 C 621.289062 467.882812 622.714844 469.988281 624.210938 472.050781 C 625.707031 474.109375 627.269531 476.117188 628.898438 478.074219 C 630.53125 480.027344 632.226562 481.929688 633.984375 483.769531 C 635.742188 485.613281 637.558594 487.394531 639.433594 489.113281 C 641.3125 490.835938 643.246094 492.492188 645.230469 494.082031 C 647.21875 495.671875 649.257812 497.195312 651.347656 498.652344 C 653.4375 500.105469 655.574219 501.488281 657.757812 502.800781 C 659.9375 504.113281 662.164062 505.347656 664.425781 506.511719 C 666.691406 507.675781 668.996094 508.761719 671.332031 509.769531 C 673.671875 510.777344 676.039062 511.707031 678.4375 512.558594 C 680.839844 513.410156 683.265625 514.175781 685.714844 514.867188 C 688.167969 515.554688 690.640625 516.160156 693.132812 516.679688 C 695.625 517.203125 698.128906 517.640625 700.652344 517.996094 C 703.171875 518.351562 705.703125 518.621094 708.242188 518.808594 C 710.78125 518.992188 713.324219 519.09375 715.871094 519.105469 C 718.417969 519.121094 720.960938 519.050781 723.503906 518.898438 C 726.042969 518.742188 728.578125 518.5 731.101562 518.175781 C 733.628906 517.851562 736.140625 517.445312 738.636719 516.949219 C 741.136719 516.457031 743.617188 515.882812 746.074219 515.222656 C 748.535156 514.5625 750.96875 513.824219 753.378906 513.003906 C 755.789062 512.179688 758.167969 511.277344 760.519531 510.296875 C 762.867188 509.316406 765.183594 508.257812 767.460938 507.121094 C 769.738281 505.988281 771.976562 504.777344 774.175781 503.488281 C 776.375 502.203125 778.527344 500.847656 780.632812 499.417969 C 782.738281 497.984375 784.796875 496.488281 786.800781 494.921875 C 788.808594 493.351562 790.761719 491.71875 792.65625 490.023438 L 803.011719 479.480469 L 858.09375 423.019531 C 858.515625 425.574219 859.019531 428.113281 859.613281 430.636719 C 860.207031 433.160156 860.886719 435.660156 861.648438 438.136719 C 862.414062 440.613281 863.261719 443.0625 864.191406 445.480469 C 865.121094 447.898438 866.132812 450.28125 867.226562 452.632812 C 868.320312 454.980469 869.492188 457.292969 870.742188 459.5625 C 871.992188 461.832031 873.316406 464.058594 874.71875 466.238281 C 876.121094 468.417969 877.597656 470.546875 879.144531 472.625 C 880.691406 474.703125 882.304688 476.726562 883.992188 478.699219 C 885.675781 480.667969 887.425781 482.574219 889.242188 484.425781 C 891.054688 486.277344 892.929688 488.0625 894.867188 489.785156 C 896.804688 491.507812 898.796875 493.160156 900.847656 494.746094 C 902.894531 496.332031 904.996094 497.847656 907.148438 499.289062 C 909.300781 500.734375 911.5 502.101562 913.746094 503.394531 C 915.992188 504.691406 918.28125 505.90625 920.609375 507.042969 C 922.9375 508.179688 925.300781 509.238281 927.703125 510.214844 C 930.101562 511.191406 932.535156 512.082031 934.996094 512.894531 C 937.457031 513.703125 939.945312 514.429688 942.453125 515.074219 C 944.964844 515.714844 947.496094 516.269531 950.042969 516.738281 C 952.59375 517.207031 955.15625 517.589844 957.730469 517.882812 C 960.304688 518.179688 962.886719 518.386719 965.476562 518.503906 C 968.0625 518.621094 970.652344 518.652344 973.246094 518.59375 C 975.835938 518.539062 978.421875 518.390625 981.003906 518.15625 C 983.582031 517.925781 986.152344 517.601562 988.710938 517.195312 C 991.273438 516.785156 993.8125 516.289062 996.339844 515.707031 C 998.863281 515.125 1001.367188 514.457031 1003.847656 513.703125 C 1006.328125 512.953125 1008.777344 512.117188 1011.199219 511.195312 C 1013.625 510.277344 1016.011719 509.273438 1018.367188 508.191406 C 1020.722656 507.109375 1023.035156 505.949219 1025.3125 504.707031 C 1027.589844 503.46875 1029.820312 502.152344 1032.003906 500.761719 C 1034.191406 499.367188 1036.328125 497.902344 1038.414062 496.367188 C 1040.5 494.828125 1042.53125 493.222656 1044.507812 491.542969 C 1046.484375 489.867188 1048.402344 488.128906 1050.257812 486.320312 L 1052.769531 483.8125 L 1111.742188 423.519531 C 1112.414062 427.757812 1113.328125 431.945312 1114.472656 436.082031 C 1115.621094 440.21875 1117 444.277344 1118.605469 448.257812 C 1120.210938 452.238281 1122.035156 456.117188 1124.078125 459.890625 C 1126.125 463.664062 1128.375 467.3125 1130.832031 470.832031 C 1133.285156 474.351562 1135.933594 477.722656 1138.769531 480.945312 C 1141.605469 484.164062 1144.613281 487.21875 1147.796875 490.097656 C 1150.976562 492.980469 1154.3125 495.671875 1157.796875 498.175781 C 1161.28125 500.683594 1164.898438 502.984375 1168.644531 505.078125 C 1174.59375 508.398438 1180.792969 511.171875 1187.238281 513.386719 C 1193.683594 515.605469 1200.273438 517.234375 1207.007812 518.28125 C 1213.742188 519.324219 1220.515625 519.765625 1227.332031 519.601562 C 1234.144531 519.441406 1240.890625 518.675781 1247.566406 517.3125 C 1250.773438 516.65625 1253.941406 515.859375 1257.078125 514.929688 C 1260.214844 514 1263.304688 512.9375 1266.347656 511.738281 C 1269.390625 510.542969 1272.378906 509.21875 1275.308594 507.765625 C 1278.238281 506.3125 1281.101562 504.734375 1283.898438 503.035156 C 1286.691406 501.335938 1289.410156 499.519531 1292.046875 497.589844 C 1294.6875 495.65625 1297.238281 493.613281 1299.699219 491.460938 C 1302.164062 489.308594 1304.53125 487.054688 1306.796875 484.699219 C 1309.066406 482.34375 1311.230469 479.894531 1313.289062 477.351562 C 1315.347656 474.808594 1317.292969 472.183594 1319.128906 469.476562 C 1320.960938 466.765625 1322.671875 463.984375 1324.265625 461.128906 C 1325.859375 458.269531 1327.328125 455.351562 1328.671875 452.367188 C 1330.015625 449.386719 1331.226562 446.351562 1332.308594 443.265625 C 1333.390625 440.175781 1334.335938 437.050781 1335.148438 433.882812 C 1335.960938 430.714844 1336.636719 427.515625 1337.175781 424.289062 C 1337.714844 421.0625 1338.113281 417.820312 1338.371094 414.558594 C 1338.628906 411.296875 1338.746094 408.03125 1338.726562 404.761719 C 1338.730469 399.714844 1338.402344 394.6875 1337.734375 389.683594 C 1337.066406 384.679688 1336.066406 379.742188 1334.734375 374.875 C 1333.40625 370.003906 1331.757812 365.242188 1329.789062 360.59375 C 1327.820312 355.945312 1325.550781 351.449219 1322.980469 347.105469 Z M 902.636719 404.886719 C 902.636719 403.515625 902.675781 402.148438 902.757812 400.78125 C 902.839844 399.410156 902.964844 398.046875 903.128906 396.6875 C 903.292969 395.328125 903.5 393.972656 903.746094 392.625 C 903.992188 391.277344 904.28125 389.9375 904.609375 388.605469 C 904.9375 387.277344 905.304688 385.957031 905.714844 384.648438 C 906.121094 383.339844 906.570312 382.046875 907.054688 380.765625 C 907.542969 379.484375 908.066406 378.21875 908.628906 376.96875 C 909.195312 375.71875 909.796875 374.488281 910.433594 373.277344 C 911.070312 372.0625 911.746094 370.871094 912.457031 369.699219 C 913.167969 368.527344 913.914062 367.378906 914.695312 366.25 C 915.472656 365.125 916.289062 364.023438 917.132812 362.945312 C 917.980469 361.867188 918.859375 360.816406 919.773438 359.792969 C 920.683594 358.769531 921.625 357.777344 922.59375 356.808594 C 923.566406 355.84375 924.566406 354.90625 925.59375 354 C 926.621094 353.09375 927.675781 352.21875 928.757812 351.375 C 929.839844 350.535156 930.945312 349.726562 932.074219 348.953125 C 933.207031 348.175781 934.359375 347.4375 935.53125 346.730469 C 936.707031 346.027344 937.902344 345.355469 939.121094 344.726562 C 940.335938 344.09375 941.570312 343.496094 942.820312 342.941406 C 944.074219 342.382812 945.339844 341.863281 946.625 341.382812 C 947.90625 340.902344 949.203125 340.460938 950.511719 340.058594 C 951.824219 339.65625 953.144531 339.292969 954.476562 338.972656 C 955.808594 338.648438 957.148438 338.367188 958.5 338.128906 C 959.847656 337.886719 961.203125 337.6875 962.5625 337.53125 C 963.925781 337.371094 965.289062 337.253906 966.660156 337.179688 C 968.027344 337.101562 969.398438 337.070312 970.765625 337.078125 C 972.136719 337.085938 973.507812 337.132812 974.875 337.222656 C 976.242188 337.316406 977.605469 337.445312 978.964844 337.621094 C 980.324219 337.792969 981.675781 338.007812 983.023438 338.261719 C 984.367188 338.519531 985.707031 338.8125 987.035156 339.152344 C 988.363281 339.488281 989.679688 339.863281 990.984375 340.28125 C 992.292969 340.695312 993.582031 341.152344 994.863281 341.648438 L 907.71875 430.609375 C 904.191406 422.355469 902.414062 413.738281 902.386719 404.761719 Z M 902.636719 404.886719 " fill-opacity="1" fill-rule="nonzero"/></svg>